<svg width="52" height="88" viewBox="0 0 52 88" fill="none" xmlns="http://www.w3.org/2000/svg">
<path d="M1.39935 56.1868C1.12764 56.1863 0.86193 56.1081 0.63462 55.9616C0.40731 55.8151 0.228217 55.6067 0.119173 55.3618C0.0101296 55.1169 -0.024153 54.846 0.0205046 54.5823C0.0651622 54.3185 0.186835 54.0732 0.370682 53.8763C2.95852 51.101 4.39431 47.4712 4.39431 43.7044C4.39431 39.9377 2.95852 36.3079 0.370682 33.5326C0.246098 33.3996 0.149338 33.2438 0.0859333 33.0741C0.0225284 32.9044 -0.00628353 32.724 0.00114334 32.5433C0.00857021 32.3626 0.052094 32.1851 0.129222 32.0209C0.20635 31.8568 0.315571 31.7092 0.450658 31.5866C0.585745 31.464 0.744049 31.3688 0.91653 31.3064C1.08901 31.244 1.27229 31.2156 1.4559 31.2229C1.63952 31.2302 1.81988 31.2731 1.98667 31.349C2.15347 31.4249 2.30344 31.5324 2.42802 31.6653C5.49373 34.9488 7.19498 39.2453 7.19498 43.7044C7.19498 48.1636 5.49373 52.4601 2.42802 55.7436C2.2973 55.8838 2.1383 55.9956 1.96117 56.0719C1.78405 56.1482 1.5927 56.1874 1.39935 56.1868Z" fill="black"/>
<path d="M17.2451 71.7837C16.8832 71.7849 16.5352 71.6467 16.2755 71.3986C16.0107 71.1461 15.8579 70.8011 15.85 70.4383C15.8422 70.0756 15.9801 69.7245 16.2337 69.4611C23.0073 62.5476 26.7923 53.3181 26.7923 43.7142C26.7923 34.1103 23.0073 24.8807 16.2337 17.9672C15.9762 17.7035 15.8357 17.35 15.8431 16.9844C15.8504 16.6188 16.0051 16.271 16.273 16.0176C16.541 15.7642 16.9002 15.6259 17.2717 15.6332C17.6432 15.6405 17.9966 15.7927 18.2541 16.0564C25.528 23.4842 29.5923 33.3983 29.5923 43.7142C29.5923 54.0301 25.528 63.9441 18.2541 71.372C18.1224 71.5035 17.9653 71.6077 17.792 71.6785C17.6187 71.7492 17.4327 71.785 17.2451 71.7837Z" fill="black"/>
<path d="M33.1209 87.4072C32.8451 87.408 32.5753 87.3286 32.3453 87.1788C32.1153 87.0291 31.9355 86.8158 31.8284 86.5657C31.7214 86.3156 31.6918 86.0399 31.7436 85.7734C31.7954 85.5068 31.9261 85.2613 32.1193 85.0677C43.068 73.9939 49.1941 59.1528 49.1941 43.702C49.1941 28.2512 43.068 13.4102 32.1193 2.33641C31.8605 2.07498 31.7178 1.72309 31.7227 1.35815C31.7275 0.993209 31.8795 0.645108 32.1451 0.390428C32.4108 0.135747 32.7683 -0.00465135 33.1392 0.000117639C33.51 0.00488663 33.8637 0.154433 34.1225 0.415858C45.5815 12.0032 51.9933 27.5341 51.9933 43.7032C51.9933 59.8724 45.5815 75.4032 34.1225 86.9906C33.9924 87.1225 33.8367 87.2273 33.6646 87.2989C33.4926 87.3704 33.3077 87.4073 33.1209 87.4072Z" fill="black"/>
</svg>
