<svg width="54" height="80" viewBox="0 0 54 80" fill="none" xmlns="http://www.w3.org/2000/svg">
<path d="M51.8003 79.9178C51.4821 79.9186 51.173 79.8127 50.9242 79.6175L23.31 57.8788H12.6C9.25734 57.8749 6.05289 56.5656 3.69043 54.2383C1.32796 51.9111 0.000649809 48.7562 0 45.4666L0 34.4447C0.00130174 31.1555 1.3289 28.0013 3.6913 25.6746C6.05369 23.3478 9.25777 22.0389 12.6 22.035H23.31L50.9242 0.301101C51.1301 0.13931 51.3782 0.0379858 51.6401 0.00877277C51.9019 -0.0204402 52.1668 0.023644 52.4043 0.135959C52.6418 0.248273 52.8423 0.424259 52.9827 0.643691C53.1231 0.863122 53.1978 1.11709 53.1981 1.37641V78.5349C53.1974 78.9002 53.0497 79.2504 52.7872 79.5086C52.5248 79.7669 52.169 79.9123 51.7978 79.913L51.8003 79.9178ZM12.6 24.8008C10.002 24.804 7.51138 25.8211 5.67434 27.629C3.83729 29.4369 2.8038 31.888 2.80055 34.4447V45.4666C2.80315 48.0238 3.83635 50.4755 5.67347 52.2839C7.51059 54.0924 10.0016 55.1098 12.6 55.113H23.7997C24.1178 55.113 24.4266 55.2188 24.6758 55.4133L50.4 75.6674V4.24391L24.6758 24.5005C24.4266 24.695 24.1178 24.8008 23.7997 24.8008H12.6Z" fill="black"/>
</svg>
