<svg width="5662" height="5574" viewBox="0 0 5662 5574" xmlns="http://www.w3.org/2000/svg">
    <path
        d="M3142.82 3344.84L3139.63 3346.27L3561.44 4293.06L3679.1 4231.6L3773.47 4175.65L3874.19 4102.05L3977.76 4014.03L4058.56 3935.12L4142.26 3840.65L4212.65 3743.39L4275.59 3647.82L4330.08 3545.62L4376.1 3447.76L4421.11 3331.73L4469.36 3160.56L4487.71 3060.85L4498.24 2976.7L3466.29 2870.72L3464.43 2893.47L3462.38 2904.8L3456.73 2937.46L3450.49 2957.78L3447.39 2972.87L3441.96 2990.1L3433.5 3015.25L3427.7 3030.45L3420.03 3047.58L3415.25 3060.13L3406.87 3078.12L3398.64 3092.77L3387.52 3111.99L3379.79 3125.31L3369.94 3141.23L3363.72 3150.59L3355.38 3162.54L3347.54 3173.18L3339.75 3182.69L3330.99 3193.73L3326.04 3199.79L3318.75 3207.98L3312.17 3215.31L3308.17 3219.84L3304.43 3223.71L3298.1 3230.38L3292.02 3236.39L3283.62 3244.53L3274.05 3253.75L3263.82 3262.71L3253.14 3271.88L3242.7 3280.39L3231.35 3289.31L3215.19 3300.93L3205.51 3307.45L3198.37 3312.3L3192.39 3316.07L3186.87 3319.64L3181.8 3323L3177.44 3325.5L3173.54 3327.8L3169.18 3330.3L3164.36 3333L3159.55 3335.71L3158.64 3336.12L3157.93 3336.98L3157.01 3337.39L3155.65 3338L3154.28 3338.62L3153.57 3339.48L3152.66 3339.89L3151.74 3340.3L3149.92 3341.12L3146.02 3343.41L3142.82 3344.84Z"
        stroke="black" stroke-width="3" id="a" />
    <path
        d="M3473.99 2803.73L3473.65 2807.21L4504.82 2912.17L4510.02 2779.53L4508.41 2669.83L4494.66 2545.85L4469.82 2412.22L4441.54 2302.87L4401.22 2183.28L4351.85 2073.83L4300.24 1971.7L4238.68 1873.59L4176.68 1785L4098.4 1688.24L3973.91 1561.24L3896.53 1495.73L3828.76 1444.75L3223.56 2287.29L3242.37 2300.22L3251.18 2307.63L3276.7 2328.78L3291.23 2344.3L3302.78 2354.49L3315.02 2367.77L3332.63 2387.62L3342.93 2400.21L3353.98 2415.38L3362.49 2425.78L3373.94 2442L3382.55 2456.42L3393.69 2475.62L3401.41 2488.96L3410.31 2505.42L3415.34 2515.47L3421.56 2528.66L3426.89 2540.74L3431.27 2552.24L3436.49 2565.32L3439.28 2572.63L3442.76 2583.03L3445.85 2592.38L3447.79 2598.1L3449.29 2603.28L3451.92 2612.08L3454.11 2620.34L3457 2631.69L3460.24 2644.57L3462.93 2657.9L3465.56 2671.73L3467.76 2685.02L3469.85 2699.3L3471.89 2719.1L3472.74 2730.74L3473.39 2739.35L3473.69 2746.41L3474.04 2752.98L3474.43 2759.05L3474.43 2764.07L3474.49 2768.6L3474.49 2773.63L3474.44 2779.15L3474.39 2784.67L3474.29 2785.67L3474.69 2786.71L3474.59 2787.71L3474.44 2789.2L3474.29 2790.69L3474.69 2791.74L3474.59 2792.73L3474.49 2793.73L3474.29 2795.72L3474.34 2800.24L3473.99 2803.73Z"
        stroke="black" stroke-width="3" />
    <path
        d="M2505.87 3328.97L2503.04 3326.92L1894 4165.61L2006.05 4236.78L2101.7 4290.53L2215.79 4340.95L2343.8 4386.64L2452.55 4417.16L2576.21 4442.42L2695.64 4454.74L2809.87 4461.46L2925.62 4457.55L3033.38 4448.48L3156.37 4429.44L3328.73 4385.65L3424.26 4351.68L3502.4 4318.72L3078.21 3372.04L3057.57 3381.8L3046.74 3385.69L3015.63 3397.13L2994.91 3401.89L2980.29 3406.75L2962.66 3410.65L2936.65 3415.91L2920.59 3418.48L2901.92 3420.41L2888.65 3422.54L2868.88 3424.28L2852.08 3424.47L2829.88 3424.46L2814.47 3424.43L2795.76 3423.85L2784.55 3423.15L2770.02 3421.9L2756.9 3420.43L2744.76 3418.44L2730.82 3416.38L2723.1 3415.11L2712.36 3412.9L2702.72 3410.86L2696.8 3409.67L2691.58 3408.36L2682.64 3406.21L2674.4 3403.95L2663.14 3400.75L2650.38 3397.07L2637.5 3392.69L2624.21 3388.02L2611.63 3383.24L2598.23 3377.87L2580.09 3369.69L2569.6 3364.57L2561.83 3360.8L2555.57 3357.51L2549.72 3354.51L2544.27 3351.8L2539.93 3349.28L2535.99 3347.05L2531.65 3344.52L2526.9 3341.71L2522.15 3338.89L2521.34 3338.3L2520.23 3338.12L2519.42 3337.53L2518.21 3336.66L2516.99 3335.78L2515.89 3335.6L2515.08 3335.01L2514.27 3334.42L2512.65 3333.25L2508.71 3331.02L2505.87 3328.97Z"
        stroke="black" stroke-width="3" />
    <path
        d="M2519.4 2228.7L2522.59 2227.27L2100.78 1280.48L1983.12 1341.94L1888.75 1397.9L1788.03 1471.49L1684.46 1559.51L1603.66 1638.43L1519.96 1732.89L1449.56 1830.16L1386.63 1925.73L1332.14 2027.92L1286.12 2125.78L1241.11 2241.81L1192.86 2412.98L1174.51 2512.69L1163.98 2596.84L2195.93 2702.82L2197.79 2680.07L2199.84 2668.74L2205.49 2636.08L2211.72 2615.76L2214.83 2600.67L2220.26 2583.45L2228.72 2558.29L2234.52 2543.1L2242.18 2525.97L2246.97 2513.41L2255.35 2495.42L2263.58 2480.77L2274.7 2461.55L2282.43 2448.23L2292.28 2432.31L2298.5 2422.95L2306.84 2411L2314.68 2400.37L2322.47 2390.85L2331.22 2379.81L2336.18 2373.75L2343.47 2365.56L2350.05 2358.23L2354.05 2353.7L2357.79 2349.83L2364.12 2343.16L2370.19 2337.16L2378.6 2329.01L2388.17 2319.79L2398.4 2310.83L2409.08 2301.66L2419.52 2293.15L2430.86 2284.24L2447.03 2272.62L2456.7 2266.09L2463.85 2261.25L2469.83 2257.47L2475.35 2253.9L2480.42 2250.54L2484.78 2248.04L2488.68 2245.74L2493.04 2243.24L2497.86 2240.54L2502.67 2237.84L2503.58 2237.43L2504.29 2236.56L2505.2 2236.15L2506.57 2235.54L2507.94 2234.93L2508.65 2234.06L2509.56 2233.65L2510.48 2233.24L2512.3 2232.43L2516.2 2230.13L2519.4 2228.7Z"
        stroke="black" stroke-width="3" />
    <path
        d="M2188.23 2769.82L2188.57 2766.33L1157.4 2661.37L1152.2 2794.01L1153.81 2903.71L1167.56 3027.69L1192.4 3161.32L1220.68 3270.67L1261 3390.27L1310.37 3499.71L1361.98 3601.85L1423.53 3699.95L1485.54 3788.55L1563.81 3885.3L1688.31 4012.3L1765.69 4077.81L1833.46 4128.8L2438.66 3286.25L2419.85 3273.32L2411.04 3265.91L2385.52 3244.77L2370.99 3229.25L2359.44 3219.05L2347.2 3205.77L2329.59 3185.92L2319.28 3173.33L2308.24 3158.16L2299.73 3147.77L2288.28 3131.55L2279.67 3117.12L2268.53 3097.92L2260.81 3084.59L2251.9 3068.12L2246.88 3058.07L2240.66 3044.89L2235.33 3032.8L2230.95 3021.31L2225.73 3008.22L2222.94 3000.91L2219.45 2990.51L2216.37 2981.16L2214.43 2975.44L2212.93 2970.26L2210.3 2961.46L2208.1 2953.2L2205.22 2941.86L2201.98 2928.97L2199.29 2915.64L2196.65 2901.81L2194.46 2888.52L2192.37 2874.25L2190.33 2854.45L2189.48 2842.8L2188.83 2834.2L2188.53 2827.13L2188.18 2820.56L2187.78 2814.49L2187.78 2809.47L2187.73 2804.94L2187.73 2799.92L2187.78 2794.4L2187.83 2788.87L2187.93 2787.88L2187.53 2786.83L2187.63 2785.84L2187.78 2784.35L2187.93 2782.85L2187.53 2781.81L2187.63 2780.81L2187.73 2779.82L2187.93 2777.83L2187.88 2773.3L2188.23 2769.82Z"
        stroke="black" stroke-width="3" />
    <path
        d="M3156.35 2244.58L3159.18 2246.63L3768.22 1407.93L3656.17 1336.77L3560.52 1283.02L3446.43 1232.59L3318.42 1186.9L3209.67 1156.39L3086.01 1131.13L2966.58 1118.8L2852.35 1112.08L2736.6 1115.99L2628.84 1125.06L2505.85 1144.1L2333.48 1187.9L2237.96 1221.86L2159.82 1254.82L2584.01 2201.5L2604.65 2191.74L2615.48 2187.86L2646.59 2176.41L2667.31 2171.65L2681.93 2166.8L2699.56 2162.89L2725.57 2157.64L2741.63 2155.06L2760.3 2153.14L2773.57 2151.01L2793.34 2149.26L2810.14 2149.07L2832.34 2149.09L2847.74 2149.12L2866.46 2149.69L2877.67 2150.4L2892.19 2151.65L2905.32 2153.12L2917.46 2155.11L2931.4 2157.17L2939.12 2158.43L2949.86 2160.65L2959.5 2162.68L2965.42 2163.88L2970.64 2165.19L2979.58 2167.33L2987.82 2169.59L2999.08 2172.8L3011.84 2176.47L3024.72 2180.85L3038 2185.52L3050.59 2190.3L3063.98 2195.67L3082.13 2203.86L3092.62 2208.98L3100.39 2212.74L3106.64 2216.04L3112.5 2219.03L3117.95 2221.74L3122.29 2224.26L3126.23 2226.5L3130.57 2229.02L3135.32 2231.84L3140.07 2234.66L3140.88 2235.24L3141.99 2235.42L3142.8 2236.01L3144.01 2236.89L3145.23 2237.77L3146.33 2237.95L3147.14 2238.54L3147.95 2239.12L3149.57 2240.29L3153.51 2242.53L3156.35 2244.58Z"
        stroke="black" stroke-width="3" />
</svg>