<svg width="24" height="24" viewBox="0 0 24 24" fill="none" xmlns="http://www.w3.org/2000/svg">
<path d="M1.6538 12.6874C1.2757 12.666 0.983535 12.3437 1.00072 11.9656L1.01791 11.6219C1.21985 7.59604 4.54111 4.43807 8.57132 4.43807H17.7832L15.317 2.19527C15.0377 1.94178 15.0162 1.50353 15.2697 1.22425C15.5232 0.944976 15.9615 0.923493 16.2407 1.17699L20.0217 4.61423C20.1635 4.74313 20.2452 4.92788 20.2452 5.12122C20.2452 5.31457 20.1635 5.49932 20.0217 5.62822L16.2407 9.06546C15.9615 9.31895 15.5232 9.30177 15.2697 9.01819C15.0162 8.73462 15.0334 8.30067 15.317 8.04717L17.7832 5.81297H8.57132C5.27583 5.81297 2.55609 8.39949 2.39282 11.6906L2.37563 12.0344C2.35844 12.4125 2.0319 12.7046 1.6538 12.6874ZM22.3462 11.3126C22.7243 11.3297 23.0165 11.6563 22.9993 12.0344L22.9821 12.3781C22.7802 16.404 19.4589 19.5619 15.4287 19.5619H6.21679L8.68303 21.8047C8.96231 22.0582 8.98379 22.4965 8.73029 22.7757C8.47679 23.055 8.03854 23.0765 7.75926 22.823L3.97826 19.3858C3.83647 19.2569 3.75484 19.0721 3.75484 18.8788C3.75484 18.6854 3.83647 18.5007 3.97826 18.3718L7.75926 14.9345C8.03854 14.681 8.47679 14.6982 8.73029 14.9818C8.98379 15.2654 8.96661 15.6993 8.68303 15.9528L6.21679 18.187H15.4287C18.7242 18.187 21.4439 15.6005 21.6072 12.3094L21.6244 11.9656C21.6416 11.5875 21.9681 11.2954 22.3462 11.3126Z" fill="#ffffff" stroke="#ffffff" stroke-width="0.5"/>
</svg>
