<svg width="24" height="24" viewBox="0 0 24 24" fill="none" xmlns="http://www.w3.org/2000/svg">
<path d="M1.00072 11.9656C0.983535 12.3439 1.2757 12.6664 1.6538 12.6879C2.0319 12.7094 2.35415 12.4127 2.37563 12.0344L2.39282 11.6904C2.55609 8.39717 5.27583 5.80898 8.57132 5.80898H17.7832L15.317 8.05322C15.0377 8.30688 15.0162 8.74541 15.2697 9.02487C15.5232 9.30433 15.9615 9.32582 16.2407 9.07216L20.0217 5.63271C20.1635 5.50373 20.2452 5.31886 20.2452 5.12539C20.2452 4.93192 20.1635 4.74705 20.0217 4.61807L16.2407 1.17861C15.9615 0.92495 15.5232 0.942147 15.2697 1.2259C15.0162 1.50966 15.0334 1.94389 15.317 2.19755L17.7832 4.4332H8.57132C4.54111 4.4332 1.21985 7.5932 1.01791 11.6217L1.00072 11.9656ZM22.9993 12.0344C23.0165 11.6561 22.7243 11.3336 22.3462 11.3121C21.9681 11.2906 21.6459 11.5873 21.6244 11.9656L21.6072 12.3096C21.4439 15.6028 18.7242 18.191 15.4287 18.191H6.21679L8.68303 15.9468C8.96231 15.6931 8.98379 15.2546 8.73029 14.9751C8.47679 14.6957 8.03854 14.6742 7.75926 14.9278L3.97826 18.3673C3.83647 18.4963 3.75484 18.6811 3.75484 18.8746C3.75484 19.0681 3.83647 19.253 3.97826 19.3819L7.75926 22.8214C8.03854 23.0751 8.47679 23.0579 8.73029 22.7741C8.98379 22.4903 8.96661 22.0561 8.68303 21.8025L6.21679 19.5668H15.4287C19.4589 19.5668 22.7802 16.4068 22.9821 12.3783L22.9993 12.0344ZM13.3749 9.93633C13.3749 9.67407 13.2288 9.4376 12.9968 9.32152C12.7648 9.20544 12.4855 9.23124 12.275 9.38601L10.9001 10.4178C10.595 10.6457 10.5349 11.0756 10.7626 11.3809C10.9903 11.6861 11.42 11.7463 11.725 11.5185L12 11.3121V14.0637C12 14.442 12.3094 14.7516 12.6875 14.7516C13.0656 14.7516 13.3749 14.442 13.3749 14.0637V9.93633Z" fill="#ffffff" stroke="#ffffff" stroke-width="0.5"/>
</svg>
