<svg width="32" height="32" viewBox="0 0 32 32" fill="none" xmlns="http://www.w3.org/2000/svg">
<path d="M23.3623 5.24105C23.0959 4.91965 22.6576 4.91965 22.3912 5.24105C22.1247 5.56245 22.1247 6.0912 22.3912 6.4126L24.6558 8.44633H22.1892H19.7827C18.9189 8.44633 18.1025 8.9388 17.5825 9.7734L15.4854 13.1481L16.3449 14.5322L18.6826 10.7739C18.9404 10.354 19.3487 10.1104 19.7827 10.1104H22.1892H24.6558L22.3912 12.2172C22.1247 12.5386 22.1247 13.0674 22.3912 13.3888C22.6576 13.7102 23.0959 13.7102 23.3623 13.3888L26.8002 9.86671C27.0666 9.54531 27.0666 9.01656 26.8002 8.69516L23.3623 5.24623V5.24105ZM10.363 21.3853C10.2341 21.5926 10.0278 21.717 9.81297 21.717H5.68757C5.30941 21.717 5 22.0903 5 22.5464C5 23.0026 5.30941 23.3759 5.68757 23.3759H9.81297C10.4619 23.3759 11.0721 23.0078 11.4631 22.3806L13.7665 18.6741L12.907 17.29L10.363 21.3801V21.3853ZM22.1892 26.7589C22.4556 27.0803 22.8939 27.0803 23.1604 26.7589L26.8002 23.1322C27.0666 22.8108 27.0666 22.2821 26.8002 21.9607L23.3623 18.4334C23.0959 18.112 22.6576 18.112 22.3912 18.4334C22.1247 18.7548 22.1247 19.2835 22.3912 19.6049L24.6558 21.717H22.1892H19.7827C19.3487 21.717 18.9404 21.4734 18.6826 21.0535L11.4631 9.44164C11.0721 8.81439 10.4619 8.44633 9.81297 8.44633H5.68757C5.30941 8.44633 5 8.81957 5 9.27575C5 9.73193 5.30941 10.1052 5.68757 10.1052H9.81297C10.0278 10.1052 10.2341 10.2296 10.363 10.4369L17.5825 22.0488C18.1025 22.8834 18.9189 23.3759 19.7827 23.3759H22.1892H24.6558L22.1892 25.5874C21.9227 25.9088 21.9227 26.4375 22.1892 26.7589Z" fill="#ffffff" stroke="#ffffff" stroke-width="0.5"/>
</svg>
