<?xml version="1.0" standalone="no"?>
<!DOCTYPE svg PUBLIC "-//W3C//DTD SVG 20010904//EN"
 "http://www.w3.org/TR/2001/REC-SVG-20010904/DTD/svg10.dtd">
<svg version="1.0" xmlns="http://www.w3.org/2000/svg"
 width="619.000000pt" height="619.000000pt" viewBox="0 0 619.000000 619.000000"
 preserveAspectRatio="xMidYMid meet">
<metadata>
Created by potrace 1.14, written by Peter Selinger 2001-2017
</metadata>
<g transform="translate(0.000000,619.000000) scale(0.100000,-0.100000)"
fill="#000000" stroke="none">
<path d="M3147 6154 c3 -8 10 -11 16 -7 6 4 7 1 3 -6 -6 -9 -12 -9 -25 3 -13
12 -20 13 -29 4 -8 -8 -15 -8 -27 2 -10 8 -15 9 -15 1 0 -6 -5 -11 -11 -11 -5
0 -7 5 -4 10 3 6 2 10 -4 10 -5 0 -12 -6 -14 -12 -4 -10 -6 -10 -6 0 -1 6 -6
12 -12 12 -5 0 -7 -5 -3 -12 4 -7 3 -8 -5 -4 -6 4 -18 2 -26 -4 -12 -10 -16
-9 -21 5 -5 13 -9 14 -15 3 -6 -10 -11 -10 -20 -1 -8 8 -20 6 -47 -10 -24 -14
-33 -16 -27 -7 8 13 6 13 -8 1 -11 -9 -17 -10 -17 -2 0 6 -5 11 -11 11 -5 0
-8 -4 -5 -8 6 -10 -25 -9 -42 2 -7 4 -12 4 -11 -1 3 -20 -2 -27 -11 -13 -7 11
-10 11 -10 2 0 -9 -5 -10 -19 -2 -14 7 -22 7 -27 -2 -5 -7 -3 -8 6 -3 9 5 11
4 6 -4 -6 -9 -11 -9 -22 0 -10 8 -14 8 -14 0 0 -7 -8 -8 -24 -1 -18 6 -28 5
-36 -5 -6 -7 -20 -12 -32 -10 -15 3 -18 0 -14 -13 5 -14 3 -13 -9 2 -8 11 -16
17 -16 13 -1 -4 -2 -11 -3 -17 0 -5 -5 -10 -11 -9 -5 0 -9 8 -7 17 3 16 2 16
-10 1 -16 -20 -52 -34 -42 -16 5 7 1 7 -10 -2 -9 -8 -39 -15 -65 -15 -32 -1
-47 -5 -44 -12 2 -7 -1 -15 -8 -20 -7 -4 -10 -3 -5 4 4 7 -5 10 -28 9 -28 -2
-32 -4 -23 -16 10 -12 9 -12 -12 -2 -13 7 -21 9 -17 3 3 -5 -1 -13 -10 -16 -8
-3 -13 -2 -10 2 3 5 -1 9 -9 9 -8 0 -11 -5 -8 -10 4 -6 -3 -8 -15 -5 -12 4
-20 2 -17 -2 3 -5 1 -11 -5 -15 -5 -3 -10 -1 -10 5 0 6 -5 8 -10 5 -6 -4 -7
-12 -3 -18 4 -8 1 -7 -9 1 -11 9 -17 9 -20 2 -2 -6 -13 -12 -25 -13 -12 0 -20
-4 -17 -8 2 -4 -3 -10 -12 -13 -8 -3 -13 -2 -10 2 3 5 -1 9 -9 9 -8 0 -12 -4
-9 -9 3 -4 -5 -8 -16 -8 -14 0 -20 -5 -17 -13 3 -7 -3 -13 -13 -13 -10 0 -16
5 -12 11 3 5 -1 4 -10 -2 -8 -7 -18 -11 -21 -8 -4 3 -5 2 -2 -2 6 -8 -42 -33
-66 -33 -10 0 -22 -7 -27 -17 -6 -10 -16 -14 -26 -10 -10 4 -19 1 -23 -9 -3
-8 -12 -13 -20 -9 -10 3 -13 1 -10 -9 5 -12 1 -13 -19 -6 -22 9 -24 8 -14 -9
8 -16 7 -18 -11 -14 -14 4 -25 0 -31 -11 -7 -12 -13 -14 -28 -6 -16 8 -18 8
-14 -5 4 -10 0 -15 -10 -15 -9 0 -16 -6 -16 -12 0 -9 -4 -8 -10 2 -9 13 -14 7
-11 -12 0 -4 -7 -4 -16 -1 -11 4 -14 3 -9 -6 4 -6 4 -11 -1 -10 -25 4 -45 -2
-40 -14 4 -12 -6 -16 -51 -19 -7 -1 -11 -6 -9 -13 3 -7 -6 -10 -23 -9 -21 1
-27 -2 -23 -12 4 -11 -1 -14 -21 -10 -14 2 -29 0 -32 -6 -4 -7 -2 -8 4 -4 7 4
12 2 12 -3 0 -6 -7 -11 -15 -11 -17 0 -56 -20 -66 -34 -4 -5 -13 -5 -20 0 -10
6 -10 3 1 -11 8 -10 10 -16 4 -12 -7 4 -14 0 -18 -8 -3 -8 -11 -15 -17 -15 -7
0 -8 5 -3 13 5 7 2 5 -7 -5 -9 -9 -20 -14 -25 -10 -5 4 -2 -2 6 -12 14 -18 14
-19 -8 -7 -22 12 -23 11 -13 -7 9 -18 8 -19 -11 -14 -17 4 -20 2 -15 -11 5
-14 2 -15 -19 -7 -22 9 -24 8 -14 -9 8 -16 7 -18 -12 -13 -14 3 -19 1 -14 -6
9 -15 -6 -16 -21 -1 -9 9 -11 5 -9 -14 3 -23 1 -25 -16 -16 -14 7 -18 7 -16
-3 2 -7 -3 -12 -9 -10 -7 1 -13 -3 -13 -9 0 -5 -6 -7 -13 -3 -8 6 -8 3 1 -9
12 -14 11 -16 -7 -12 -11 2 -24 -1 -27 -7 -4 -6 -3 -8 4 -5 6 5 8 0 5 -13 -5
-19 -6 -20 -19 -3 -13 17 -13 17 -15 -2 -1 -11 -1 -24 0 -28 1 -5 -3 -6 -8 -3
-11 7 -49 -24 -53 -44 -2 -8 -20 -28 -40 -43 -21 -16 -38 -35 -38 -43 0 -9 -4
-12 -10 -9 -9 6 -15 -8 -11 -29 1 -5 -6 -6 -15 -2 -12 4 -15 2 -10 -9 3 -8 0
-15 -7 -15 -7 0 -17 -10 -22 -22 -6 -13 -16 -23 -22 -23 -7 0 -13 -4 -12 -8 0
-5 -8 -15 -18 -24 -10 -8 -12 -11 -4 -7 9 4 12 2 9 -7 -3 -8 -12 -13 -21 -11
-12 2 -15 -2 -11 -13 7 -18 -33 -68 -47 -59 -5 3 -6 -3 -2 -12 5 -13 3 -15 -7
-9 -10 6 -12 4 -6 -11 6 -15 5 -16 -5 -7 -9 9 -16 6 -32 -13 -10 -14 -17 -28
-13 -31 3 -4 6 -1 6 6 0 7 5 9 11 6 6 -4 -5 -21 -28 -42 -21 -20 -33 -33 -26
-29 17 9 28 -14 13 -27 -10 -9 -11 -9 -6 0 5 9 2 11 -9 7 -14 -6 -14 -8 2 -21
10 -8 13 -12 6 -8 -8 3 -15 -4 -19 -20 -3 -14 -11 -25 -18 -25 -7 0 -6 -4 2
-9 10 -6 8 -10 -10 -15 -23 -6 -23 -6 -3 -22 l20 -16 -20 4 c-15 2 -20 -2 -19
-19 1 -14 -3 -20 -12 -16 -9 3 -11 -2 -7 -16 3 -13 1 -21 -6 -21 -7 0 -9 5 -5
12 4 7 3 8 -5 4 -6 -4 -9 -11 -6 -16 3 -4 -2 -13 -10 -20 -11 -9 -12 -16 -5
-25 8 -10 5 -17 -12 -29 -12 -9 -18 -16 -13 -16 5 0 4 -5 -3 -12 -16 -16 -15
-31 1 -22 7 4 9 3 4 -2 -5 -5 -14 -9 -20 -9 -5 0 -11 -11 -12 -23 -1 -13 -8
-28 -16 -33 -11 -7 -11 -9 -1 -9 7 0 10 -5 7 -10 -4 -6 -11 -8 -16 -5 -5 3 -6
-1 -3 -9 3 -9 1 -16 -6 -16 -6 0 -10 -8 -9 -17 3 -26 -11 -54 -24 -46 -6 4 -8
0 -4 -10 3 -9 1 -18 -6 -21 -8 -3 -6 -5 3 -5 11 -1 8 -8 -10 -22 -21 -17 -22
-20 -5 -15 18 6 19 5 3 -7 -14 -11 -15 -16 -5 -26 9 -10 8 -11 -4 -6 -10 4
-20 1 -25 -6 -5 -8 -3 -10 6 -4 8 5 11 3 8 -6 -3 -8 -10 -14 -16 -14 -5 0 -14
-4 -19 -8 -4 -5 -3 -7 2 -5 6 2 10 -1 10 -7 0 -5 -4 -9 -9 -7 -5 2 -4 -4 4
-12 12 -15 7 -21 -14 -17 -5 1 -3 -6 5 -15 12 -15 12 -17 0 -9 -11 6 -13 3 -9
-13 4 -14 2 -22 -7 -22 -9 0 -11 -8 -7 -22 4 -16 2 -20 -10 -16 -12 5 -15 -1
-12 -28 1 -19 -1 -32 -5 -30 -6 4 -12 -23 -14 -71 -1 -15 -5 -19 -12 -13 -8 6
-10 0 -9 -20 1 -17 -3 -30 -9 -30 -8 0 -8 -3 -2 -8 15 -11 15 -42 0 -42 -8 0
-11 -8 -8 -21 4 -12 0 -25 -8 -30 -12 -7 -12 -9 0 -9 11 0 11 -3 1 -15 -7 -9
-13 -38 -13 -65 1 -31 -4 -50 -11 -50 -6 0 -4 -5 4 -10 12 -8 12 -10 1 -10 -9
0 -12 -9 -9 -30 3 -17 0 -30 -6 -31 -6 0 -2 -4 9 -9 18 -8 18 -9 2 -9 -14 -1
-16 -5 -8 -19 7 -13 6 -26 -3 -44 -10 -19 -11 -29 -3 -37 8 -8 7 -11 -2 -11
-9 0 -10 -4 -4 -12 12 -16 13 -49 1 -42 -4 3 -7 -13 -6 -35 1 -22 4 -38 8 -36
4 2 7 -2 7 -10 0 -8 -4 -12 -9 -9 -4 3 -8 -67 -8 -155 0 -122 3 -161 13 -161
9 0 9 -2 -1 -9 -15 -9 -13 -42 3 -53 6 -5 4 -8 -5 -8 -13 0 -13 -1 0 -11 11
-8 12 -12 3 -16 -10 -3 -9 -9 3 -21 15 -15 15 -16 -2 -22 -17 -6 -17 -7 1 -14
16 -6 17 -9 5 -16 -13 -8 -12 -10 3 -10 10 0 15 -5 12 -10 -4 -6 -11 -8 -16
-5 -5 3 -6 -1 -3 -9 3 -9 11 -13 16 -10 6 4 5 -2 -1 -14 -14 -25 -14 -43 -1
-22 14 22 13 -6 -2 -33 -10 -20 -9 -21 5 -9 13 11 15 10 10 -6 -2 -11 0 -23 6
-26 7 -4 7 -15 1 -31 -6 -17 -5 -27 5 -35 16 -14 10 -34 -7 -24 -7 4 -8 2 -4
-4 4 -6 13 -9 21 -6 10 4 13 0 10 -15 -2 -11 2 -27 8 -34 7 -7 13 -19 15 -26
3 -12 0 -12 -15 0 -17 13 -17 13 -1 -6 16 -20 18 -24 18 -46 0 -5 6 -7 13 -3
8 5 8 2 -2 -9 -9 -11 -10 -17 -2 -17 6 0 11 -5 11 -11 0 -5 -4 -8 -9 -5 -5 4
-4 -5 2 -18 7 -13 14 -23 17 -21 5 3 9 -16 11 -57 0 -10 4 -18 8 -18 5 0 7
-12 5 -26 -1 -14 3 -27 11 -30 7 -3 16 -13 19 -21 6 -14 4 -14 -11 -2 -16 12
-16 11 0 -8 11 -12 16 -27 12 -32 -3 -6 -1 -11 4 -11 6 0 11 -9 11 -20 0 -11
4 -20 10 -20 5 0 7 -7 4 -15 -4 -8 1 -17 10 -21 9 -3 16 -14 16 -24 0 -10 6
-21 13 -23 9 -4 9 -6 -1 -6 -10 -1 -10 -5 2 -17 9 -8 14 -20 11 -25 -4 -5 -2
-9 4 -9 5 0 12 6 14 13 3 6 3 -3 0 -22 -4 -24 -3 -32 5 -27 11 7 13 3 16 -36
1 -7 7 -17 14 -21 7 -5 9 -14 5 -20 -5 -9 -3 -9 8 0 13 11 15 8 12 -20 -4 -25
-2 -29 6 -17 9 12 11 10 11 -10 1 -29 23 -63 35 -52 5 4 5 1 0 -7 -5 -9 -2
-19 10 -28 11 -7 13 -13 7 -13 -7 0 -12 -5 -12 -10 0 -6 8 -10 17 -8 12 2 18
-4 17 -17 0 -11 6 -24 13 -28 7 -4 13 -15 13 -24 0 -10 6 -13 16 -9 14 5 15 4
4 -9 -10 -12 -9 -15 6 -15 16 0 17 -2 4 -10 -13 -8 -12 -10 3 -10 10 0 15 -5
12 -10 -3 -6 -1 -10 5 -10 6 0 8 -4 5 -10 -3 -5 2 -10 12 -10 12 0 14 -3 6 -8
-9 -6 -7 -12 7 -22 11 -8 20 -23 20 -33 0 -10 4 -16 9 -13 5 3 12 -5 15 -19 4
-14 12 -25 20 -25 14 0 41 -48 37 -65 -2 -5 0 -7 4 -3 9 8 35 -16 35 -31 0 -6
5 -11 10 -11 6 0 10 -7 10 -15 0 -8 7 -15 16 -15 8 0 12 -5 9 -10 -3 -6 -1
-10 5 -10 6 0 8 -4 5 -10 -4 -6 1 -7 11 -3 13 5 16 3 11 -10 -3 -9 -2 -17 2
-17 5 0 12 6 14 13 3 6 6 2 6 -10 1 -13 5 -23 10 -23 5 0 13 -9 16 -21 5 -16
10 -18 20 -9 11 10 13 8 10 -9 -2 -12 1 -21 6 -21 15 0 39 -26 32 -34 -4 -3 3
-6 15 -6 12 0 21 -3 21 -8 -3 -20 2 -32 16 -32 8 0 15 -5 15 -11 0 -5 5 -7 12
-3 6 4 9 3 5 -2 -8 -14 19 -45 41 -47 16 -1 18 -4 10 -14 -8 -11 -7 -12 7 -7
13 5 16 4 11 -4 -4 -7 -2 -12 4 -12 6 0 8 -5 5 -10 -5 -9 15 -15 37 -11 4 0 5
-6 2 -14 -5 -11 -2 -13 12 -8 17 6 17 5 5 -10 -12 -15 -12 -17 4 -11 13 5 16
4 11 -4 -5 -8 -2 -10 8 -6 10 4 18 -1 22 -11 5 -13 9 -14 15 -3 6 9 9 7 9 -9
0 -13 3 -22 8 -22 18 3 33 -2 28 -9 -2 -4 4 -14 16 -21 16 -10 19 -10 13 1 -3
7 1 4 9 -6 9 -11 16 -16 16 -12 0 4 7 1 15 -8 8 -8 15 -20 15 -26 0 -6 4 -8
10 -5 5 3 10 1 10 -5 0 -6 4 -9 9 -6 5 3 12 -1 15 -10 4 -11 14 -14 27 -11 17
5 18 3 8 -9 -7 -8 -8 -14 -3 -13 5 1 18 1 29 0 17 -1 18 -3 5 -11 -12 -8 -9
-10 13 -10 16 0 26 -4 22 -9 -3 -5 10 -15 29 -22 19 -7 33 -16 31 -20 -7 -10
25 -20 37 -12 7 3 8 1 4 -5 -4 -7 -1 -12 8 -12 9 0 16 -6 16 -12 0 -9 4 -8 10
2 6 10 10 11 10 3 0 -7 8 -13 18 -13 14 0 15 -2 2 -10 -13 -8 -12 -10 4 -10
11 0 29 -8 40 -18 20 -16 20 -16 6 2 -15 19 -14 19 13 2 25 -17 40 -35 15 -20
-6 4 -8 3 -5 -4 4 -5 16 -8 27 -5 13 4 26 -1 34 -12 7 -10 24 -20 37 -22 13
-2 25 -8 27 -13 2 -6 8 -10 13 -10 6 0 7 5 4 10 -3 6 -1 10 4 10 11 0 15 -15
12 -34 -1 -5 4 -5 11 1 16 13 52 1 68 -24 10 -15 11 -15 6 -1 -3 12 -1 15 9
11 8 -3 12 -9 9 -14 -3 -5 2 -6 10 -3 10 4 16 1 16 -7 0 -7 3 -9 7 -6 3 4 13
1 21 -6 13 -9 14 -9 8 0 -4 7 -2 13 3 13 6 0 11 -8 11 -17 0 -15 2 -16 10 -3
7 12 10 12 10 1 0 -7 6 -11 14 -8 10 4 13 1 10 -8 -6 -15 12 -15 35 -1 9 6 12
5 8 -1 -8 -13 10 -21 40 -18 12 1 20 -2 17 -7 -5 -7 10 -12 29 -9 4 0 7 -4 7
-11 0 -6 3 -8 7 -5 3 4 12 2 20 -4 10 -9 13 -8 13 0 0 7 5 9 10 6 6 -4 7 -11
4 -17 -4 -6 -2 -8 4 -4 6 3 13 2 16 -3 4 -5 18 -8 32 -5 16 3 23 1 19 -6 -3
-6 0 -7 10 -4 8 4 22 1 29 -5 11 -9 15 -9 19 1 4 10 9 8 17 -5 9 -14 15 -15
32 -6 15 8 19 8 14 0 -7 -10 27 -16 63 -12 7 2 10 -2 6 -9 -6 -9 -2 -9 15 0
18 10 25 8 43 -7 11 -10 17 -12 13 -6 -4 7 -2 13 3 13 6 0 11 -5 11 -11 0 -5
5 -7 10 -4 6 4 17 2 25 -5 10 -8 15 -8 20 1 6 8 10 7 16 -2 7 -11 9 -11 9 1 0
13 2 13 10 0 6 -10 25 -14 65 -12 33 1 53 -2 50 -8 -3 -6 1 -7 9 -4 9 3 13 11
10 18 -3 6 1 3 9 -7 11 -14 16 -15 20 -5 3 8 6 6 6 -5 1 -10 6 -15 11 -12 6 4
8 11 5 16 -3 5 1 6 9 3 9 -3 14 -10 11 -14 -3 -5 -1 -11 4 -14 5 -4 13 -1 17
5 5 8 3 9 -6 4 -9 -5 -11 -4 -6 4 6 9 11 9 22 0 10 -8 14 -8 14 0 0 6 5 11 11
11 5 0 8 -4 5 -8 -3 -5 9 -8 27 -7 18 2 38 -3 46 -9 11 -8 13 -8 7 1 -4 7 -3
13 3 13 5 0 12 -4 15 -9 7 -10 25 -9 43 2 6 4 14 3 18 -3 4 -6 12 -7 24 0 12
6 22 5 31 -3 8 -8 11 -8 7 -1 -4 7 3 14 16 16 31 6 49 -1 40 -15 -5 -8 -2 -8
9 0 8 7 19 9 23 5 5 -4 5 -2 2 4 -4 7 0 15 9 18 11 4 15 2 11 -8 -4 -10 0 -12
14 -9 10 3 17 8 15 12 -2 3 7 7 20 7 13 1 22 -1 19 -5 -2 -4 2 -8 10 -8 8 0
15 4 15 9 0 13 28 9 33 -4 3 -8 6 -7 6 4 1 9 6 20 13 24 7 4 8 3 4 -4 -4 -7
-1 -12 8 -12 8 0 18 5 22 11 4 8 9 7 15 -2 5 -8 9 -9 9 -3 0 10 19 14 73 15
11 0 15 5 10 12 -4 7 2 5 12 -3 12 -9 16 -10 11 -2 -6 9 -1 11 18 8 14 -3 28
-1 31 4 3 5 12 7 20 3 8 -3 15 1 15 8 0 7 3 9 6 6 4 -3 16 -2 27 4 10 6 17 7
14 2 -4 -5 0 -10 8 -10 8 0 12 4 9 9 -5 8 18 12 45 8 13 -2 13 1 1 17 -13 16
-13 16 8 -1 12 -11 22 -14 22 -9 0 6 7 14 16 17 10 4 13 2 8 -7 -5 -8 -2 -7 9
2 10 8 20 11 23 8 4 -3 13 1 22 9 12 13 16 13 23 2 7 -11 9 -11 9 0 0 7 5 10
10 7 6 -3 13 1 16 10 6 13 8 14 15 3 7 -10 9 -11 9 0 0 7 5 10 10 7 6 -3 10
-3 10 2 0 4 14 9 31 10 17 1 37 7 44 13 6 5 15 7 18 3 4 -3 7 -1 7 6 0 8 7 11
15 7 10 -3 15 1 15 12 0 15 2 15 10 2 6 -9 10 -10 10 -3 0 6 9 10 19 8 11 -2
26 4 33 13 12 15 11 16 -4 3 -10 -7 -18 -9 -18 -3 0 14 28 23 36 10 4 -7 9 -7
13 0 3 6 13 12 21 14 8 2 20 10 27 18 11 13 14 13 22 1 7 -11 10 -10 15 7 4
11 16 22 27 25 17 5 18 3 7 -11 -9 -11 -5 -10 14 3 15 11 28 24 28 28 0 5 5 5
10 2 6 -3 10 -1 10 5 0 6 5 8 10 5 6 -3 10 -2 10 4 0 6 7 7 17 4 12 -5 14 -3
8 7 -6 10 -4 12 9 7 9 -4 15 -3 12 2 -3 5 2 15 11 22 12 10 14 10 9 2 -4 -7
-3 -13 2 -13 6 0 12 7 16 15 3 8 12 15 21 15 8 0 15 6 15 13 0 9 2 9 9 -1 6
-10 10 -9 14 7 5 19 29 27 60 22 5 -1 6 3 2 9 -3 6 -11 7 -17 4 -7 -4 -8 -2
-4 4 4 6 12 9 19 6 7 -2 21 3 32 12 11 8 13 12 5 8 -9 -4 -12 -3 -7 2 5 5 18
9 30 9 14 0 22 6 21 17 -1 11 5 15 18 13 14 -3 18 0 14 10 -3 8 0 17 6 21 7 4
8 3 4 -4 -4 -7 -1 -12 8 -12 8 0 18 5 21 10 4 6 11 8 16 5 5 -3 6 0 3 8 -4 12
26 35 33 25 1 -2 8 6 16 16 8 11 19 16 26 12 7 -4 15 3 21 19 5 14 14 23 20
20 5 -3 10 2 10 12 0 15 2 16 10 3 5 -8 10 -12 11 -7 1 4 3 12 4 17 1 6 3 13
4 16 0 4 8 1 16 -6 13 -11 14 -10 9 4 -6 15 6 21 30 17 5 -1 4 5 -3 13 -11 13
-10 15 8 11 14 -2 21 1 21 11 0 8 4 13 9 10 5 -3 11 1 15 9 3 8 10 15 16 15 6
0 8 -6 5 -12 -4 -7 3 -2 15 11 11 13 18 31 15 39 -5 12 -3 13 10 2 13 -11 16
-11 13 1 -2 8 2 13 9 12 7 -2 10 4 6 13 -3 9 0 14 8 12 8 -2 13 4 13 14 -1 11
4 14 14 10 12 -4 14 -1 9 12 -5 13 -3 17 7 13 10 -4 13 -1 9 9 -4 10 0 12 11
8 11 -4 16 -1 16 10 0 9 7 16 15 16 8 0 15 9 15 21 0 11 5 17 10 14 6 -3 10 1
10 10 0 9 4 14 9 11 10 -6 44 41 44 61 0 6 3 12 6 11 3 0 13 0 21 1 13 1 13 2
0 11 -12 8 -11 10 6 10 28 0 36 10 21 28 -6 9 -7 13 -1 9 6 -3 16 3 24 13 8
10 18 16 24 13 6 -4 5 1 -3 10 -12 16 -8 22 12 18 5 -1 6 3 2 8 -3 6 3 15 14
21 13 7 18 16 14 27 -4 9 -2 14 3 11 5 -3 15 0 22 8 10 11 10 14 0 15 -7 0 -3
4 9 9 16 7 21 14 16 26 -5 13 -3 15 7 9 10 -6 12 -4 7 8 -3 9 -1 19 5 23 6 4
8 3 5 -3 -3 -5 0 -10 7 -10 7 0 12 10 10 23 -1 13 4 25 13 28 8 4 13 13 9 21
-3 8 -2 14 2 12 4 -1 8 2 9 6 1 5 10 15 20 24 11 8 12 12 3 8 -8 -4 -4 3 10
15 14 12 18 19 10 15 -10 -4 -9 -2 2 8 14 11 15 16 5 26 -9 10 -8 11 4 6 10
-4 20 -1 25 6 5 8 3 10 -7 4 -11 -7 -12 -6 -2 7 7 8 9 19 5 23 -4 5 2 5 12 1
17 -6 17 -5 5 11 -8 9 -9 14 -3 10 16 -9 31 13 28 41 -1 18 1 20 13 11 11 -9
12 -9 7 5 -4 10 -1 16 7 16 11 0 11 3 -1 10 -13 8 -13 10 1 10 9 0 19 7 23 15
3 8 1 15 -4 15 -6 0 -10 5 -10 11 0 5 3 8 8 6 4 -3 13 1 20 9 8 9 9 14 2 14
-6 0 -8 5 -5 10 4 6 10 8 15 5 4 -3 6 4 3 15 -3 12 1 22 11 26 9 3 13 10 10
15 -3 5 0 9 5 9 6 0 11 5 11 11 0 5 -4 7 -10 4 -6 -3 -7 1 -4 9 3 9 10 14 14
11 4 -3 11 2 14 11 3 8 2 13 -3 10 -5 -4 -4 5 2 18 7 13 15 22 19 20 4 -3 5 2
2 10 -4 10 -1 16 7 16 7 0 9 3 6 7 -4 3 -1 13 6 21 9 13 9 14 0 8 -9 -5 -11
-2 -7 8 3 9 11 13 17 9 6 -3 7 -1 3 6 -4 6 -2 19 6 28 11 14 11 15 0 9 -11 -7
-11 -4 -1 12 7 12 18 18 24 14 5 -3 4 1 -3 10 -9 12 -10 18 -2 23 8 5 8 11 -1
21 -10 12 -9 13 4 8 12 -4 15 -1 12 15 -2 12 0 21 5 21 5 0 6 7 3 17 -4 11 -3
14 5 9 8 -4 10 3 7 25 -3 23 0 29 10 25 11 -4 12 0 5 19 -5 14 -6 25 -1 25 5
0 8 8 8 17 0 35 3 44 13 38 6 -3 7 1 4 9 -3 9 -11 13 -18 9 -6 -3 0 6 14 22
14 16 19 25 13 21 -7 -4 -13 -2 -13 3 0 6 6 11 13 11 8 0 7 4 -3 10 -10 6 -11
10 -2 10 7 0 12 15 12 41 0 22 4 38 9 35 5 -3 11 1 14 9 4 10 1 12 -11 9 -9
-3 -6 1 7 9 18 11 20 16 10 20 -10 4 -10 6 -1 6 9 1 12 105 12 484 0 472 0
484 -20 505 -13 14 -16 22 -8 22 9 0 9 3 -2 10 -13 9 -13 10 0 10 12 0 12 2 2
9 -8 4 -13 11 -13 15 3 20 0 26 -9 21 -7 -4 -7 3 0 20 7 19 7 24 -2 19 -8 -5
-9 -2 -5 9 4 10 0 20 -11 26 -15 9 -15 10 3 11 18 1 18 2 -5 16 -18 11 -19 14
-5 9 16 -5 18 -4 8 6 -7 7 -13 21 -13 31 0 10 -5 18 -11 18 -6 0 -9 7 -6 15 4
8 1 17 -5 21 -7 4 -6 9 3 15 11 7 10 9 -4 9 -10 0 -16 4 -12 9 3 6 -3 15 -12
21 -17 11 -17 11 0 6 20 -6 16 5 -11 37 -15 16 -14 17 2 11 17 -7 18 -6 2 18
-9 13 -13 28 -9 31 3 4 -2 7 -13 7 -14 0 -16 2 -5 9 9 6 10 11 3 15 -6 4 -8
14 -5 23 5 12 3 14 -7 8 -10 -6 -12 -2 -8 19 4 18 1 26 -9 26 -8 0 -11 5 -8
10 3 6 1 10 -5 10 -6 0 -9 4 -6 9 4 5 0 12 -6 14 -10 4 -9 6 1 6 9 1 6 8 -9
21 -15 13 -18 20 -9 20 11 0 11 2 -1 10 -13 9 -13 10 0 10 8 1 5 5 -8 11 -13
5 -20 14 -17 19 4 6 0 22 -9 35 -9 13 -16 35 -16 47 0 19 -2 20 -10 8 -8 -12
-10 -11 -10 8 0 12 -6 22 -12 22 -9 0 -8 4 2 10 13 8 12 10 -2 10 -10 0 -18 5
-18 11 0 5 4 7 10 4 6 -3 7 1 4 9 -3 9 -14 16 -23 16 -14 0 -14 2 -1 10 12 8
12 10 -5 10 -15 0 -17 3 -7 9 11 7 11 9 -2 14 -9 4 -15 12 -14 19 2 7 -2 12
-9 13 -6 0 -15 4 -20 9 -5 5 -3 6 5 2 8 -5 12 0 12 12 0 12 -9 22 -21 25 -12
3 -18 10 -14 17 4 6 -2 19 -13 28 -10 9 -18 25 -16 35 1 9 -1 15 -5 12 -9 -5
-51 49 -51 66 0 6 -8 18 -17 26 -12 10 -13 12 -3 8 10 -4 9 -2 -2 8 -10 8 -15
16 -12 20 3 3 -4 8 -15 12 -11 3 -18 12 -15 20 3 7 0 16 -5 20 -6 3 -9 11 -5
16 3 5 2 9 -3 8 -18 -3 -36 1 -30 7 3 4 1 16 -5 28 -7 11 -11 24 -10 28 1 4
-4 5 -12 2 -7 -3 -19 3 -27 12 -9 11 -9 15 -2 10 9 -5 11 -2 7 9 -4 10 -13 14
-22 10 -9 -3 -13 -3 -10 1 4 4 -6 19 -23 35 -16 15 -30 30 -29 33 2 25 -1 30
-10 16 -8 -12 -10 -11 -10 6 0 23 -24 39 -42 27 -6 -3 -8 -1 -4 5 3 6 0 17 -8
25 -8 8 -12 17 -9 21 4 3 -1 6 -11 6 -9 0 -14 5 -11 10 3 6 -1 10 -10 10 -9 0
-13 5 -10 10 3 6 -1 10 -9 10 -9 0 -16 5 -16 11 0 5 -4 8 -9 5 -5 -3 -15 2
-22 12 -13 15 -12 16 3 4 12 -10 18 -10 24 -1 4 7 3 9 -3 6 -6 -4 -16 0 -23 8
-7 8 -17 15 -22 15 -6 0 -22 13 -38 30 -15 16 -30 26 -34 22 -4 -3 -4 1 0 11
4 13 1 17 -14 17 -11 0 -23 7 -26 16 -3 8 -11 12 -17 8 -7 -4 -10 -3 -7 2 3 5
-4 18 -15 29 -11 12 -17 14 -13 5 5 -9 2 -8 -7 2 -8 10 -17 14 -21 10 -4 -4
-7 -2 -6 3 4 20 0 35 -11 35 -5 0 -7 -6 -4 -12 4 -7 0 -5 -8 5 -8 9 -18 17
-23 17 -5 0 -15 9 -22 21 -7 11 -19 18 -27 15 -10 -3 -12 0 -8 11 5 12 2 15
-11 10 -10 -4 -19 -1 -23 9 -3 8 -12 13 -19 10 -7 -3 -16 0 -20 6 -4 7 -3 8 4
4 7 -4 12 -2 12 3 0 6 -7 11 -16 11 -9 0 -12 5 -8 13 5 7 0 6 -11 -3 -11 -9
-16 -10 -11 -2 4 7 2 12 -8 12 -8 0 -20 8 -25 18 -6 9 -11 13 -11 9 0 -4 -6
-2 -14 5 -8 7 -12 16 -9 20 2 4 -3 5 -11 2 -10 -4 -18 1 -22 11 -5 13 -9 14
-15 3 -7 -10 -9 -9 -9 4 0 12 -5 15 -17 11 -12 -5 -15 -2 -10 10 4 11 2 14 -9
10 -17 -6 -46 15 -38 28 8 13 -10 11 -23 -2 -8 -8 -13 -5 -18 11 -6 18 -9 20
-16 9 -6 -10 -9 -11 -9 -1 0 6 -7 12 -15 12 -8 0 -15 3 -15 8 0 9 -53 33 -79
35 -11 0 -17 5 -14 11 4 5 -1 7 -11 3 -11 -5 -15 -3 -10 5 5 8 2 9 -10 5 -11
-5 -15 -3 -10 5 5 7 2 9 -9 5 -9 -3 -27 4 -43 18 -15 13 -32 21 -39 19 -7 -3
-15 2 -19 12 -5 13 -9 14 -21 4 -11 -9 -15 -9 -15 -1 0 7 -4 10 -9 6 -5 -3
-17 2 -25 11 -9 9 -16 11 -16 4 0 -6 -5 -8 -10 -5 -6 4 -7 11 -4 17 4 6 -1 8
-15 3 -12 -3 -21 -2 -21 4 0 5 -9 8 -20 6 -11 -2 -23 1 -26 7 -5 7 -2 8 6 3 9
-6 11 -4 5 4 -4 7 -16 11 -26 8 -11 -3 -19 -1 -19 4 0 4 -7 5 -17 2 -10 -4
-14 -2 -10 4 4 7 0 10 -10 8 -10 -1 -28 3 -39 10 -16 10 -24 11 -33 2 -8 -8
-11 -8 -11 2 0 7 -4 9 -10 6 -5 -3 -10 -2 -10 4 0 6 -7 7 -17 4 -11 -4 -14 -3
-9 5 5 8 0 12 -14 12 -14 0 -19 -4 -15 -12 4 -7 -1 -4 -9 6 -9 11 -16 14 -16
7 0 -7 -5 -9 -10 -6 -6 4 -8 10 -6 14 3 3 -4 7 -15 7 -10 0 -19 -5 -19 -11 0
-5 -4 -4 -9 4 -5 7 -20 14 -35 14 -14 0 -26 4 -26 9 0 5 -8 8 -17 7 -34 -3
-44 1 -37 14 5 9 4 9 -6 0 -11 -10 -18 -9 -34 5 -16 13 -18 13 -8 1 9 -13 9
-16 -3 -16 -8 0 -15 4 -15 9 0 5 -14 7 -31 4 -27 -4 -29 -3 -17 11 12 15 11
15 -9 4 -18 -9 -23 -9 -23 1 0 9 -3 9 -12 0 -18 -18 -31 -15 -24 5 6 15 5 15
-13 -1 -19 -18 -21 -18 -27 -2 -5 14 -9 15 -15 4 -7 -10 -9 -9 -9 5 0 10 -5
15 -10 12 -6 -4 -8 -11 -5 -16 3 -5 -1 -6 -9 -3 -9 3 -16 10 -16 15 0 5 -5 9
-11 9 -5 0 -7 -4 -4 -10 3 -5 1 -10 -4 -10 -6 0 -11 5 -11 11 0 8 -4 8 -12 2
-7 -5 -24 -9 -38 -8 -14 0 -28 -4 -32 -10 -5 -6 -8 -3 -8 7 0 9 -5 20 -12 24
-6 4 -8 3 -4 -4 3 -6 2 -13 -4 -17 -5 -3 -10 -2 -10 3 0 5 -9 12 -19 15 -14 3
-18 1 -14 -9z m-227 -14 c0 -5 -5 -10 -11 -10 -5 0 -7 5 -4 10 3 6 8 10 11 10
2 0 4 -4 4 -10z m-270 -45 c0 -2 -9 -3 -19 -2 -11 0 -18 5 -15 9 4 6 34 0 34
-7z m-2200 -1545 c0 -5 -5 -10 -11 -10 -5 0 -7 5 -4 10 3 6 8 10 11 10 2 0 4
-4 4 -10z m-306 -2038 c3 -5 -1 -9 -9 -9 -8 0 -12 4 -9 9 3 4 7 8 9 8 2 0 6
-4 9 -8z m3970 -2240 c3 -5 -1 -9 -9 -9 -8 0 -12 4 -9 9 3 4 7 8 9 8 2 0 6 -4
9 -8z m-980 -190 c3 -5 -1 -9 -9 -9 -8 0 -12 4 -9 9 3 4 7 8 9 8 2 0 6 -4 9
-8z"/>
<path d="M889 5243 c-13 -16 -12 -17 4 -4 16 13 21 21 13 21 -2 0 -10 -8 -17
-17z"/>
<path d="M668 4978 c-10 -10 -14 -18 -9 -18 10 0 36 29 30 34 -2 1 -12 -6 -21
-16z"/>
<path d="M5620 4791 c0 -6 4 -13 10 -16 6 -3 7 1 4 9 -7 18 -14 21 -14 7z"/>
</g>
</svg>
